<svg width="300" height="200" viewBox="0 0 300 200" fill="none" xmlns="http://www.w3.org/2000/svg">
  <g opacity="0.9">
    <!-- Shield -->
    <path d="M150 30C150 30 100 50 100 80V130C100 150 150 170 150 170C150 170 200 150 200 130V80C200 50 150 30 150 30Z" fill="none" stroke="#2152CC" stroke-width="3">
      <animate attributeName="stroke-dasharray" values="0,1000;1000,0" dur="2s" fill="freeze" />
    </path>
    
    <!-- Checkmark -->
    <path d="M130 100L145 115L170 85" fill="none" stroke="#2152CC" stroke-width="4" stroke-linecap="round" stroke-linejoin="round" opacity="0">
      <animate attributeName="opacity" values="0;1" dur="0.5s" begin="1.5s" fill="freeze" />
      <animate attributeName="stroke-dasharray" values="0,1000;1000,0" dur="1s" begin="1.5s" fill="freeze" />
    </path>
    
    <!-- Verification Elements -->
    <rect x="80" y="40" width="40" height="6" rx="3" fill="#2152CC" opacity="0.6">
      <animate attributeName="width" values="0;40" dur="1s" begin="0.5s" fill="freeze" />
    </rect>
    <rect x="80" y="55" width="30" height="6" rx="3" fill="#2152CC" opacity="0.6">
      <animate attributeName="width" values="0;30" dur="0.8s" begin="0.7s" fill="freeze" />
    </rect>
    <rect x="180" y="40" width="40" height="6" rx="3" fill="#2152CC" opacity="0.6">
      <animate attributeName="width" values="0;40" dur="1s" begin="0.5s" fill="freeze" />
    </rect>
    <rect x="190" y="55" width="30" height="6" rx="3" fill="#2152CC" opacity="0.6">
      <animate attributeName="width" values="0;30" dur="0.8s" begin="0.7s" fill="freeze" />
    </rect>
    
    <!-- Scanning Effect -->
    <rect x="100" y="30" width="100" height="140" fill="#2152CC" opacity="0.2">
      <animate attributeName="y" values="30;170;30" dur="3s" repeatCount="indefinite" />
      <animate attributeName="opacity" values="0.2;0.3;0.2" dur="3s" repeatCount="indefinite" />
    </rect>
  </g>
</svg>